<svg width="31" height="31" viewBox="0 0 31 31" fill="none" xmlns="http://www.w3.org/2000/svg">
<path d="M24.2188 18.8906H6.78125V16.5258C6.78125 16.2392 6.88294 15.9618 7.06822 15.7431C7.2535 15.5244 7.51036 15.3785 7.79311 15.3314L15.5 14.0469L23.2069 15.3314C23.4896 15.3785 23.7465 15.5244 23.9318 15.7431C24.1171 15.9618 24.2187 16.2392 24.2188 16.5258V18.8906Z" fill="#C85AED"/>
<path d="M17.9219 14.5312L15.5 17.9219L13.0781 14.5312L13.5625 13.0781H17.4375L17.9219 14.5312Z" fill="#FFD4CF"/>
<path d="M17.7437 13.9966L17.4375 13.0781H13.5625L13.2531 14.0065L14.5218 14.6409C14.8246 14.7918 15.1582 14.8705 15.4965 14.8709H15.4966C15.8387 14.8705 16.1759 14.79 16.4813 14.6358L17.7437 13.9966Z" fill="#FBB8B0"/>
<path d="M20.2227 7.26562H19.375V4.35938H11.625V7.26562H10.7773C10.6168 7.26562 10.4628 7.32942 10.3492 7.44296C10.2357 7.55651 10.1719 7.71051 10.1719 7.87109V9.08203C10.1719 9.24261 10.2357 9.39662 10.3492 9.51016C10.4628 9.62371 10.6168 9.6875 10.7773 9.6875H11.625V10.9868C11.625 11.3241 11.7189 11.6548 11.8963 11.9417C12.0736 12.2287 12.3274 12.4606 12.6291 12.6114L14.955 13.7744C15.1241 13.8589 15.3106 13.9027 15.4997 13.9022C15.6887 13.9017 15.875 13.857 16.0436 13.7716L18.3792 12.5889C18.6787 12.4372 18.9304 12.2055 19.1061 11.9194C19.2819 11.6334 19.375 11.3042 19.375 10.9684V9.6875H20.2227C20.3832 9.6875 20.5372 9.62371 20.6508 9.51016C20.7643 9.39662 20.8281 9.24261 20.8281 9.08203V7.87109C20.8281 7.71051 20.7643 7.55651 20.6508 7.44296C20.5372 7.32942 20.3832 7.26562 20.2227 7.26562Z" fill="#FFD4CF"/>
<path d="M15.5 12.1094C14.6852 12.1094 14.0469 11.5775 14.0469 10.8984H15.0156C15.0156 10.9838 15.1995 11.1406 15.5 11.1406C15.8005 11.1406 15.9844 10.9838 15.9844 10.8984H16.9531C16.9531 11.5775 16.3148 12.1094 15.5 12.1094Z" fill="#AE7069"/>
<path d="M14.0469 5.32812H12.3516C12.0304 5.32812 11.7224 5.20054 11.4953 4.97345C11.2682 4.74635 11.1406 4.43835 11.1406 4.11719V2.66406C11.1406 2.3429 11.2682 2.0349 11.4953 1.8078C11.7224 1.58071 12.0304 1.45313 12.3516 1.45312H14.0469V5.32812Z" fill="#D3463D"/>
<path d="M16.4688 17.9219H14.5312L5.05047 16.5675C4.96459 16.5552 4.87709 16.5616 4.79387 16.586C4.71066 16.6105 4.63367 16.6526 4.56814 16.7095C4.50261 16.7663 4.45005 16.8366 4.41403 16.9155C4.37802 16.9944 4.35938 17.0801 4.35938 17.1669V27.5686C4.35937 27.7144 4.41195 27.8552 4.50744 27.9653C4.60293 28.0754 4.73494 28.1474 4.87922 28.168L14.5312 29.5469H16.4688L26.1208 28.168C26.2651 28.1474 26.3971 28.0754 26.4926 27.9653C26.5881 27.8552 26.6406 27.7144 26.6406 27.5686V17.1669C26.6406 17.0801 26.622 16.9944 26.586 16.9155C26.5499 16.8366 26.4974 16.7663 26.4319 16.7095C26.3663 16.6526 26.2893 16.6105 26.2061 16.586C26.1229 16.5615 26.0354 16.5552 25.9495 16.5675L16.4688 17.9219Z" fill="#FED672"/>
<path d="M6.29688 20.3438V18.8906L12.5938 19.8594V22.7656L6.29688 21.7969V20.3438Z" fill="#FFFEFA"/>
<path d="M8.15924 24.9318L8.31618 23.9757L12.7372 24.7013L12.5803 25.6575L8.15924 24.9318Z" fill="#FA5D3F"/>
<path d="M7.31427 26.863L7.4654 25.9059L12.7879 26.7463L12.6368 27.7034L7.31427 26.863Z" fill="#FA5D3F"/>
<path d="M24.7031 18.8906L18.4129 19.8594V25.1875L24.7031 24.2188V18.8906Z" fill="#FFFEFA"/>
<path d="M18.3262 26.6483L23.6551 25.679L23.8285 26.6322L18.4996 27.6016L18.3262 26.6483Z" fill="#FA5D3F"/>
<path d="M14.5312 17.9219H16.4688V29.5469H14.5312V17.9219Z" fill="#FA5D3F"/>
<path d="M3.99609 21.3125H4.96484C5.44658 21.3125 5.90859 21.5039 6.24924 21.8445C6.58988 22.1852 6.78125 22.6472 6.78125 23.1289V23.8555C6.78125 24.3372 6.58988 24.7992 6.24924 25.1399C5.90859 25.4805 5.44658 25.6719 4.96484 25.6719H3.99609C3.83551 25.6719 3.68151 25.6081 3.56796 25.4945C3.45442 25.381 3.39062 25.227 3.39062 25.0664V21.918C3.39062 21.7574 3.45442 21.6034 3.56796 21.4898C3.68151 21.3763 3.83551 21.3125 3.99609 21.3125Z" fill="#FFD4CF"/>
<path d="M27.0039 25.6719H26.0352C25.5534 25.6719 25.0914 25.4805 24.7508 25.1399C24.4101 24.7992 24.2188 24.3372 24.2188 23.8555V23.1289C24.2188 22.6472 24.4101 22.1852 24.7508 21.8445C25.0914 21.5039 25.5534 21.3125 26.0352 21.3125H27.0039C27.1645 21.3125 27.3185 21.3763 27.432 21.4898C27.5456 21.6034 27.6094 21.7574 27.6094 21.918V25.0664C27.6094 25.227 27.5456 25.381 27.432 25.4945C27.3185 25.6081 27.1645 25.6719 27.0039 25.6719Z" fill="#FFD4CF"/>
<path d="M13.0781 7.75H14.0469V8.71875H13.0781V7.75Z" fill="#AE7069"/>
<path d="M13.5625 1.45312H16.7109C17.6744 1.45313 18.5984 1.83587 19.2797 2.51715C19.961 3.19844 20.3438 4.12246 20.3438 5.08594V7.75H16.1055C15.431 7.75 14.7842 7.48208 14.3073 7.00518C13.8304 6.52828 13.5625 5.88147 13.5625 5.20703V1.45312Z" fill="#FA5D3F"/>
</svg>
