<svg id="Capa_1" enable-background="new 0 0 512 512" height="512" viewBox="0 0 512 512" width="512" xmlns="http://www.w3.org/2000/svg" xmlns:xlink="http://www.w3.org/1999/xlink"><linearGradient id="SVGID_1_" gradientUnits="userSpaceOnUse" x1="256" x2="256" y1="512" y2="0"><stop offset="0" stop-color="#fd5900"/><stop offset="1" stop-color="#ffde00"/></linearGradient><g><g><path d="m180.997 60h-90c-8.284 0-15 6.716-15 15s6.716 15 15 15h90c8.284 0 15-6.716 15-15s-6.716-15-15-15zm275.46 99.54c-27.52-27.519-64.513-41.472-103.119-39.318-21.603-32.348-56.79-54.881-97.341-59.384v-15.838c0-24.813-20.187-45-45-45h-150c-24.813 0-45 20.187-45 45v60c0 24.813 20.187 45 45 45h150c24.813 0 45-20.187 45-45v-13.924c25.525 3.667 48.115 16.543 64.278 35.149-20.465 6.523-39.514 18.122-54.993 33.722-20.344 20.503-33.777 47.134-37.825 74.988-3.111 21.409-1.173 43.044 5.593 63.167l-124.66 124.659c-2.813 2.813-4.394 6.628-4.394 10.606v63.633c0 8.284 6.716 15 15 15h63.633c3.978 0 7.793-1.581 10.606-4.394l124.659-124.659c20.12 6.765 41.754 8.703 63.167 5.593 27.854-4.047 54.484-17.48 74.987-37.825 20.522-20.363 34.144-46.897 38.355-74.715 6.563-43.334-7.269-85.782-37.946-116.46zm-230.46-54.54c0 8.271-6.729 15-15 15h-150c-8.271 0-15-6.729-15-15v-60c0-8.271 6.729-15 15-15h150c8.271 0 15 6.729 15 15zm135 105c8.271 0 15 6.729 15 15s-6.729 15-15 15-15-6.729-15-15 6.728-15 15-15zm103.746 61.51c-6.688 44.172-43.694 80.905-87.995 87.342-19.427 2.823-39.051.344-56.745-7.17-5.627-2.389-12.146-1.124-16.469 3.201l-33.299 33.299-6.21-6.21c-5.857-5.858-15.355-5.858-21.213 0s-5.858 15.355 0 21.213l6.21 6.21-21.209 21.209-6.21-6.21c-5.857-5.858-15.355-5.858-21.213 0s-5.858 15.355 0 21.213l6.21 6.21-30.184 30.183h-42.419v-42.419l127.117-127.118c4.324-4.324 5.59-10.84 3.201-16.469-7.514-17.694-9.993-37.316-7.17-56.745 6.074-41.798 39.122-77.091 79.938-86.563 4.16 9.41 6.975 19.54 8.205 30.148-17.089 6.387-29.291 22.876-29.291 42.166 0 24.813 20.187 45 45 45s45-20.187 45-45c0-19.775-12.828-36.6-30.595-42.622-1.039-11.149-3.439-21.908-7.032-32.111 25.141 1.733 48.682 12.294 66.873 30.486 23.866 23.867 34.619 56.946 29.5 90.757z" fill="url(#SVGID_1_)"/></g></g></svg>