<svg width="35" height="35" viewBox="0 0 35 35" fill="none" xmlns="http://www.w3.org/2000/svg">
<path d="M33.6328 16.1328H1.36719C0.61209 16.1328 0 16.7449 0 17.5C0 18.2551 0.61209 18.8672 1.36719 18.8672H33.6328C34.3879 18.8672 35 18.2551 35 17.5C35 16.7449 34.3879 16.1328 33.6328 16.1328Z" fill="black"/>
<path d="M33.6328 5.19531H1.36719C0.61209 5.19531 0 5.8074 0 6.5625C0 7.3176 0.61209 7.92969 1.36719 7.92969H33.6328C34.3879 7.92969 35 7.3176 35 6.5625C35 5.8074 34.3879 5.19531 33.6328 5.19531Z" fill="black"/>
<path d="M33.6328 27.0703H1.36719C0.61209 27.0703 0 27.6824 0 28.4375C0 29.1926 0.61209 29.8047 1.36719 29.8047H33.6328C34.3879 29.8047 35 29.1926 35 28.4375C35 27.6824 34.3879 27.0703 33.6328 27.0703Z" fill="black"/>
</svg>
