<svg width="27" height="27" viewBox="0 0 27 27" fill="none" xmlns="http://www.w3.org/2000/svg">
<path d="M13.5 27C20.9558 27 27 20.9558 27 13.5C27 6.04416 20.9558 0 13.5 0C6.04416 0 0 6.04416 0 13.5C0 20.9558 6.04416 27 13.5 27Z" fill="#FFD400"/>
<path d="M27 13.5C27 13.2363 26.9916 12.9746 26.9767 12.7147L19.4445 5.18247L19.0898 6.22266L17.9672 6.16992L15.1729 3.375L3.375 15.1729L6.16992 17.9672L7.54117 21.8032L12.7147 26.9767C12.9746 26.9916 13.2363 27 13.5 27C20.9558 27 27 20.9558 27 13.5Z" fill="#FF9F00"/>
<path d="M23.625 15.1729V11.827L20.8801 11.2812C20.7259 10.7829 20.536 10.3083 20.2869 9.84551L21.8175 7.55552L19.4445 5.18247L17.1545 6.71314C16.6917 6.46397 16.2171 6.27407 15.7188 6.11988L15.1729 3.375H11.827L11.2812 6.11988C10.7829 6.27407 10.3083 6.46397 9.84551 6.71314L7.55552 5.18247L5.18247 7.55552L6.71314 9.84551C6.46397 10.3083 6.27407 10.7829 6.11988 11.2812L3.375 11.8271V15.173L6.11988 15.7188C6.27407 16.2171 6.46397 16.6917 6.71314 17.1545L5.18247 19.4445L7.55552 21.8175L9.84551 20.2869C10.3083 20.536 10.7829 20.7259 11.2812 20.8801L11.8271 23.625H15.173L15.7188 20.8801C16.2171 20.7259 16.6917 20.536 17.1545 20.2869L19.4445 21.8175L21.8175 19.4445L20.2869 17.1545C20.536 16.6917 20.7259 16.2171 20.8801 15.7188L23.625 15.1729ZM13.5 17.6528C11.21 17.6528 9.34717 15.79 9.34717 13.5C9.34717 11.21 11.21 9.34717 13.5 9.34717C15.79 9.34717 17.6528 11.21 17.6528 13.5C17.6528 15.79 15.79 17.6528 13.5 17.6528Z" fill="#5A5A5A"/>
<path d="M20.8801 15.7188C20.7259 16.2171 20.536 16.6917 20.2869 17.1545L21.8175 19.4445L19.4445 21.8175L17.1545 20.2869C16.6917 20.536 16.2171 20.7259 15.7188 20.8801L15.1729 23.625H13.5V17.6528C15.79 17.6528 17.6528 15.79 17.6528 13.5C17.6528 11.21 15.79 9.34717 13.5 9.34717V3.375H15.1729L15.7187 6.11988C16.2171 6.27407 16.6917 6.46397 17.1544 6.71314L19.4444 5.18247L21.8175 7.55552L20.2869 9.84551C20.536 10.3083 20.7259 10.7829 20.8801 11.2812L23.625 11.8271V15.173L20.8801 15.7188Z" fill="#444444"/>
</svg>
