<svg width="32" height="32" viewBox="0 0 32 32" fill="none" xmlns="http://www.w3.org/2000/svg">
<path d="M16 32C11.7262 32 7.70831 30.3357 4.68625 27.3137C1.66431 24.2917 0 20.2738 0 16C0 11.7262 1.66431 7.70831 4.68625 4.68625C7.70831 1.66431 11.7262 0 16 0C20.2738 0 24.2917 1.66431 27.3137 4.68625C30.3357 7.70831 32 11.7262 32 16C32 20.2738 30.3357 24.2917 27.3137 27.3137C24.2917 30.3357 20.2738 32 16 32ZM16 2.5C8.55606 2.5 2.5 8.55606 2.5 16C2.5 23.4439 8.55606 29.5 16 29.5C23.4439 29.5 29.5 23.4439 29.5 16C29.5 8.55606 23.4439 2.5 16 2.5ZM10.3125 24.4101V7.58988L24.9461 16L10.3125 24.4101ZM12.8125 11.9101V20.0899L19.9289 16L12.8125 11.9101Z" fill="url(#paint0_linear)"/>
<defs>
<linearGradient id="paint0_linear" x1="16" y1="0" x2="16" y2="32" gradientUnits="userSpaceOnUse">
<stop stop-color="#F5B02A"/>
<stop offset="1" stop-color="#FDE400"/>
</linearGradient>
</defs>
</svg>
